HIERARCHY
ROOT Hips
{
 OFFSET 0.000000 0.000000 0.000000
 CHANNELS 6 Xposition Yposition Zposition Yrotation Xrotation Zrotation
 JOINT Chest
 {
  OFFSET 0.000000 9.585900 0.002600
  CHANNELS 3 Yrotation Xrotation Zrotation
  JOINT Chest2
  {
   OFFSET 0.000000 9.601200 -0.005300
   CHANNELS 3 Yrotation Xrotation Zrotation
   JOINT Chest3
   {
    OFFSET 0.000000 9.561800 0.000000
    CHANNELS 3 Yrotation Xrotation Zrotation
    JOINT Chest4
    {
     OFFSET 0.000000 9.552100 0.000000
     CHANNELS 3 Yrotation Xrotation Zrotation
     JOINT Neck
     {
      OFFSET 0.000000 14.453000 0.000000
      CHANNELS 3 Yrotation Xrotation Zrotation
      JOINT Head
      {
       OFFSET 0.000000 8.936500 -0.011300
       CHANNELS 3 Yrotation Xrotation Zrotation
       End Site
       {
        OFFSET 0.000000 17.073600 -0.006000
       }
      }
     }
     JOINT RightCollar
     {
      OFFSET -2.921100 9.558500 0.000000
      CHANNELS 3 Yrotation Xrotation Zrotation
      JOINT RightShoulder
      {
       OFFSET -13.519700 0.000000 0.000000
       CHANNELS 3 Yrotation Xrotation Zrotation
       JOINT RightElbow
       {
        OFFSET 0.000000 -29.696600 0.000000
        CHANNELS 3 Yrotation Xrotation Zrotation
        JOINT RightWrist
        {
         OFFSET 0.000000 -24.004700 0.000000
         CHANNELS 3 Yrotation Xrotation Zrotation
         End Site
         {
          OFFSET 0.000000 -17.728500 0.000000
         }
        }
       }
      }
     }
     JOINT LeftCollar
     {
      OFFSET 2.921100 9.558500 0.000000
      CHANNELS 3 Yrotation Xrotation Zrotation
      JOINT LeftShoulder
      {
       OFFSET 13.519700 0.000000 0.000000
       CHANNELS 3 Yrotation Xrotation Zrotation
       JOINT LeftElbow
       {
        OFFSET 0.000000 -29.696600 0.000000
        CHANNELS 3 Yrotation Xrotation Zrotation
        JOINT LeftWrist
        {
         OFFSET 0.000000 -24.004700 0.000000
         CHANNELS 3 Yrotation Xrotation Zrotation
         End Site
         {
          OFFSET 0.000000 -17.728500 0.000000
         }
        }
       }
      }
     }
    }
   }
  }
 }
 JOINT RightHip
 {
  OFFSET -7.771700 -0.012900 -0.001300
  CHANNELS 3 Yrotation Xrotation Zrotation
  JOINT RightKnee
  {
   OFFSET 0.000000 -40.869800 0.001200
   CHANNELS 3 Yrotation Xrotation Zrotation
   JOINT RightAnkle
   {
    OFFSET 0.000000 -39.717900 0.002100
    CHANNELS 3 Yrotation Xrotation Zrotation
    JOINT RightToe
    {
     OFFSET 0.000000 -4.965400 11.033500
     CHANNELS 3 Yrotation Xrotation Zrotation
     End Site
     {
      OFFSET 0.000000 -1.423100 5.872300
     }
    }
   }
  }
 }
 JOINT LeftHip
 {
  OFFSET 7.771700 -0.012900 -0.001300
  CHANNELS 3 Yrotation Xrotation Zrotation
  JOINT LeftKnee
  {
   OFFSET 0.000000 -40.869800 0.001200
   CHANNELS 3 Yrotation Xrotation Zrotation
   JOINT LeftAnkle
   {
    OFFSET 0.000000 -39.717900 0.002100
    CHANNELS 3 Yrotation Xrotation Zrotation
    JOINT LeftToe
    {
     OFFSET 0.000000 -4.965400 11.033500
     CHANNELS 3 Yrotation Xrotation Zrotation
     End Site
     {
      OFFSET 0.000000 -1.423100 5.872300
     }
    }
   }
  }
 }
}
MOTION
Frames: 14
Frame Time: 0.008333
-53.439815 62.187628 13.951996 176.407631 -54.207681 0.387372 4.340049 27.114317 0.145308 0.662414 4.568465 -0.006081 1.052281 7.241791 0.015072 3.288868 21.779938 0.476126 -2.527551 17.251879 -0.551771 -4.481224 -3.739041 -0.162653 6.275284 7.837635 5.890508 -1.586107 -18.092036 -12.517112 -86.492489 -46.038947 132.514914 9.234612 3.263414 21.486246 -9.741296 3.107595 -1.212663 -6.446932 -12.026997 19.941922 97.002227 -51.707094 -138.198832 7.601855 0.826914 -15.247038 2.922980 -12.641613 -7.577611 1.598631 61.422632 -2.923030 2.042948 -9.198147 10.711769 0.045393 -0.185612 0.004815 0.678486 -1.690608 6.542271 119.144510 83.957824 127.580121 -4.886971 -16.753344 -10.265717 0.386030 -21.099063 -0.703577
-53.439260 62.188570 13.949643 176.409595 -54.205301 0.376959 4.360413 27.212085 0.153451 0.667276 4.603443 -0.008399 1.059390 7.293584 0.011690 3.296226 21.842578 0.466987 -2.553776 17.188584 -0.609648 -4.511115 -3.857709 -0.258692 6.356842 7.569431 5.928662 -1.403029 -18.309702 -12.621764 -86.198492 -45.657952 132.480100 9.064331 3.233803 21.477863 -9.743335 2.873689 -1.206650 -6.500852 -12.280184 20.016066 96.885787 -51.345609 -138.393568 7.517336 0.879151 -15.619579 2.916936 -12.641996 -7.569512 1.589917 61.420225 -2.930409 2.051984 -9.198054 10.711871 0.041947 -0.186641 0.006467 0.677817 -1.690623 6.553033 119.101858 83.945240 127.536856 -4.895714 -16.758245 -10.264483 0.384017 -21.099507 -0.705899
-53.440075 62.189432 13.946707 176.410320 -54.203273 0.375665 4.334626 27.313245 0.136822 0.665483 4.638515 -0.011962 1.055918 7.345609 0.006130 3.270258 21.908073 0.447081 -2.552287 17.124141 -0.678935 -4.485837 -3.979546 -0.385251 6.493767 7.296897 5.927183 -1.211778 -18.514353 -12.719279 -86.014874 -45.328574 132.489456 8.969632 3.218895 21.361146 -9.668958 2.625218 -1.231104 -6.577919 -12.518430 20.091924 96.850406 -51.028503 -138.578032 7.357654 0.939737 -15.925176 2.914892 -12.642848 -7.573178 1.582985 61.421258 -2.931245 2.057577 -9.199918 10.711612 0.039337 -0.186942 0.006154 0.678712 -1.689416 6.557968 119.112015 83.947798 127.546923 -4.904659 -16.763106 -10.265496 0.391253 -21.099307 -0.701710
-53.441969 62.189832 13.943541 176.414688 -54.198748 0.378072 4.303622 27.389544 0.112244 0.669971 4.621348 -0.009750 1.044781 7.429817 -0.004295 3.245908 21.958577 0.426646 -2.544743 17.079664 -0.746233 -4.449538 -4.064368 -0.510817 6.635929 7.074234 5.937805 -1.036533 -18.703649 -12.807157 -85.955309 -45.070012 132.542019 8.932434 3.216297 21.169349 -9.600117 2.429550 -1.245058 -6.665915 -12.741338 20.149463 96.962401 -50.787362 -138.783392 7.161836 1.008254 -16.176344 2.912072 -12.647167 -7.582352 1.587834 61.426196 -2.923579 2.047955 -9.202108 10.714302 0.046997 -0.187604 0.003209 0.674008 -1.692022 6.553101 119.125891 83.948459 127.557523 -4.907395 -16.761993 -10.267746 0.392651 -21.103043 -0.697807
-53.444883 62.189278 13.940560 176.416311 -54.188472 0.389202 4.299220 27.427796 0.086040 0.651501 4.633801 -0.000539 1.065582 7.456811 -0.024250 3.232090 21.951708 0.431291 -2.540292 17.096174 -0.830091 -4.429111 -4.098660 -0.612013 6.747078 6.962594 5.972150 -0.875860 -18.877961 -12.882812 -86.018817 -44.893745 132.632337 8.930126 3.220623 20.941606 -9.567428 2.346053 -1.287398 -6.770152 -12.942210 20.219046 97.251147 -50.645111 -139.030274 6.974615 1.080042 -16.355089 2.913268 -12.658346 -7.598508 1.584998 61.433744 -2.925327 2.047851 -9.208415 10.715843 0.045752 -0.186668 0.003150 0.670232 -1.701449 6.542367 119.109367 83.943975 127.535719 -4.919923 -16.760632 -10.268131 0.396920 -21.106871 -0.693832
-53.446540 62.188965 13.937133 176.421375 -54.181556 0.391034 4.318323 27.441880 0.074952 0.669732 4.688042 -0.022257 1.043313 7.407620 0.001775 3.262273 22.000399 0.395946 -2.540466 17.073616 -0.865851 -4.419140 -4.094524 -0.697621 6.817611 6.846552 6.069634 -0.727812 -19.035405 -12.954862 -86.193001 -44.793880 132.755357 8.967158 3.253725 20.698637 -9.581498 2.277529 -1.290203 -6.882292 -13.122229 20.298593 97.710998 -50.608073 -139.325440 6.807797 1.175956 -16.437674 2.911046 -12.665805 -7.609082 1.593898 61.440258 -2.913515 2.046507 -9.212671 10.715569 0.045560 -0.188119 0.003654 0.666330 -1.707859 6.537867 119.104144 83.936662 127.527079 -4.925802 -16.759747 -10.267608 0.401179 -21.111208 -0.695035
-53.448586 62.188603 13.933526 176.426784 -54.175852 0.396138 4.333201 27.444803 0.064138 0.673404 4.690902 -0.024541 1.042180 7.410849 0.001053 3.295320 22.014870 0.376111 -2.546546 17.074771 -0.902575 -4.398456 -4.077337 -0.791519 6.880430 6.774401 6.168945 -0.597256 -19.173923 -13.023896 -86.454852 -44.761745 132.901380 9.030780 3.322025 20.458130 -9.616089 2.256960 -1.261247 -6.969387 -13.290787 20.325543 98.283284 -50.659163 -139.652662 6.666361 1.295486 -16.439683 2.908577 -12.672801 -7.626732 1.613107 61.448641 -2.889455 2.048385 -9.217923 10.713033 0.039640 -0.189596 0.003226 0.662688 -1.713880 6.530735 119.154710 83.936937 127.571499 -4.920273 -16.757499 -10.264325 0.394962 -21.116218 -0.694955
-53.450503 62.188503 13.929695 176.432272 -54.173663 0.401988 4.333420 27.445290 0.052063 0.675665 4.684203 -0.026386 1.068927 7.421509 -0.015444 3.281617 22.012863 0.399063 -2.538582 17.077650 -0.971756 -4.358507 -4.046929 -0.902949 6.971544 6.732094 6.223523 -0.494759 -19.295001 -13.080385 -86.778565 -44.790303 133.063337 9.094811 3.408847 20.237029 -9.619579 2.252827 -1.280329 -7.043438 -13.438254 20.350283 98.884373 -50.768744 -139.983931 6.570823 1.408333 -16.401579 2.907334 -12.676507 -7.639726 1.619754 61.458156 -2.883353 2.050852 -9.220823 10.714083 0.041092 -0.193945 0.005399 0.660381 -1.715952 6.528309 119.192274 83.938790 127.602172 -4.929225 -16.755740 -10.257224 0.397136 -21.120663 -0.693109
-53.450284 62.188201 13.926222 176.437394 -54.171604 0.397033 4.331767 27.443149 0.052130 0.676828 4.676693 -0.027308 1.068936 7.393404 -0.018707 3.282911 22.047462 0.390541 -2.519428 17.060618 -1.026423 -4.305609 -3.994156 -1.023221 7.071206 6.700220 6.275742 -0.428570 -19.403242 -13.120685 -87.133397 -44.861501 133.231958 9.143791 3.498648 20.062875 -9.615530 2.254545 -1.325950 -7.099954 -13.561032 20.405059 99.451165 -50.898348 -140.292433 6.518057 1.509104 -16.368850 2.903595 -12.679909 -7.639228 1.620798 61.464909 -2.881790 2.054480 -9.222044 10.713401 0.039557 -0.196460 0.006779 0.663654 -1.720490 6.547650 119.286141 83.948805 127.693157 -4.955923 -16.752808 -10.249766 0.412141 -21.129289 -0.684145
-53.449758 62.188179 13.922780 176.437598 -54.172994 0.396121 4.337552 27.422599 0.054162 0.673720 4.649005 -0.030259 1.067139 7.384061 -0.019133 3.285547 21.986013 0.379003 -2.496600 17.141355 -1.079957 -4.243328 -3.923158 -1.143471 7.170096 6.792977 6.337851 -0.402864 -19.503769 -13.147899 -87.476586 -44.947413 133.389514 9.169826 3.584276 19.961856 -9.609755 2.371101 -1.374392 -7.126097 -13.665303 20.443851 99.950836 -51.011872 -140.562708 6.480730 1.609887 -16.373255 2.903735 -12.678904 -7.637851 1.633356 61.471269 -2.869385 2.048782 -9.226817 10.712208 0.043603 -0.192023 0.010645 0.667059 -1.719631 6.559859 119.341355 83.952976 127.745947 -4.966413 -16.749653 -10.250080 0.413481 -21.136513 -0.675888
-53.451317 62.187960 13.919645 176.433819 -54.174235 0.412522 4.331456 27.393583 0.036047 0.674617 4.619975 -0.033797 1.066244 7.374679 -0.019609 3.283791 21.942217 0.370896 -2.467091 17.204125 -1.136511 -4.171685 -3.845325 -1.261577 7.270919 6.886085 6.389717 -0.427487 -19.577217 -13.164008 -87.786864 -45.021700 133.552662 9.180964 3.663189 19.938140 -9.600756 2.483019 -1.421205 -7.114531 -13.760868 20.476850 100.374501 -51.095003 -140.799541 6.448653 1.706887 -16.417473 2.911491 -12.679531 -7.647594 1.631278 61.481827 -2.877758 2.047269 -9.232921 10.717146 0.041291 -0.192690 0.012192 0.671318 -1.718209 6.554745 119.329323 83.951016 127.725762 -4.971525 -16.745718 -10.244101 0.404840 -21.139760 -0.673591
-53.451839 62.187104 13.917367 176.441606 -54.171592 0.414351 4.326285 27.352177 0.022998 0.668172 4.614211 -0.033127 1.069053 7.384002 -0.018140 3.271502 21.892116 0.359075 -2.433970 17.243652 -1.194726 -4.090350 -3.773837 -1.381234 7.371183 6.960777 6.427041 -0.505576 -19.677668 -13.162822 -87.976772 -45.074002 133.645590 9.184757 3.736429 19.978692 -9.577507 2.573889 -1.466417 -7.073925 -13.855983 20.505562 100.719792 -51.153516 -141.009851 6.428826 1.788323 -16.495572 2.911391 -12.682099 -7.652763 1.633945 61.488778 -2.879988 2.047676 -9.243595 10.716736 0.033488 -0.188988 0.016382 0.668311 -1.721520 6.551918 119.350712 83.951234 127.744855 -4.972612 -16.746450 -10.245991 0.407548 -21.140007 -0.671382
-53.450816 62.185859 13.915762 176.447240 -54.166594 0.408955 4.313845 27.292719 0.013791 0.668361 4.635574 -0.031014 1.075108 7.383354 -0.018064 3.258067 21.872274 0.351685 -2.402446 17.264637 -1.255068 -4.001745 -3.716051 -1.503726 7.428653 7.010604 6.445143 -0.594380 -19.805725 -13.146973 -88.040737 -45.106406 133.660429 9.119389 3.816074 20.026412 -9.523817 2.657345 -1.530416 -7.034240 -13.968015 20.552925 100.976396 -51.194400 -141.188651 6.429426 1.849393 -16.601086 2.909161 -12.688516 -7.648896 1.631904 61.494568 -2.883162 2.046497 -9.250650 10.713126 0.039954 -0.185387 0.021413 0.668452 -1.729656 6.563478 119.428173 83.957083 127.822819 -4.981846 -16.743706 -10.249038 0.417460 -21.145630 -0.664610
-53.448361 62.185211 13.914086 176.446100 -54.165842 0.400000 4.315857 27.276319 0.022728 0.666445 4.628386 -0.032343 1.063898 7.360143 -0.022633 3.270082 21.901890 0.354835 -2.376701 17.260422 -1.317989 -3.914586 -3.670358 -1.625151 7.470675 7.026117 6.450325 -0.724113 -19.915235 -13.126146 -88.038345 -45.117542 133.657984 9.077192 3.874870 20.093842 -9.483440 2.701960 -1.570266 -6.955925 -14.073492 20.574327 101.125394 -51.217850 -141.324024 6.454342 1.892464 -16.718698 2.908754 -12.690016 -7.630138 1.636350 61.498163 -2.885657 2.035307 -9.255631 10.710020 0.037793 -0.183043 0.024673 0.678371 -1.731470 6.590635 119.477206 83.961322 127.874195 -5.002939 -16.750614 -10.244798 0.430814 -21.144668 -0.660193
